<?xml version="1.0" encoding="UTF-8" standalone="no"?>
<!-- Created with Inkscape (http://www.inkscape.org/) -->

<svg
   version="1.1"
   id="svg1"
   width="648.51526"
   height="649.65924"
   viewBox="0 0 648.51526 649.65924"
   xmlns="http://www.w3.org/2000/svg"
   xmlns:svg="http://www.w3.org/2000/svg">
  <defs
     id="defs1" />
  <g
     id="g1"
     transform="translate(-199.36949,-142.91682)">
    <path
       style="fill:#000000"
       d="m 526.90183,791.70429 c 77.24613,-5.04502 147.37368,-37.26174 201.55565,-92.59502 37.74061,-38.54255 63.86145,-82.57931 77.8011,-131.1638 3.50089,-12.20179 8.12507,-32.96949 8.12675,-36.49808 4.3e-4,-0.90527 -7.24129,-1.19924 -29.54218,-1.19924 h -29.54274 l -0.54256,2.5 c -10.72203,49.40505 -33.47237,91.09097 -68.95535,126.34832 -32.91428,32.705 -70.70169,54.52166 -114.50824,66.11166 -20.93995,5.54013 -38.0901,7.74761 -60.9095,7.83993 -20.79565,0.0842 -32.2981,-1.00566 -51.5,-4.87941 -75.3505,-15.20102 -143.648,-68.39116 -177.0935,-137.9205 -15.4193,-32.05504 -22.8885,-62.40627 -24.1171,-98 -2.3953,-69.39492 25.601,-136.25038 77.9371,-186.11503 40.5443,-38.62964 92.6159,-62.6163 148.61909,-68.46105 14.47338,-1.51051 50.36647,-0.66967 62.65441,1.46776 23.47916,4.08408 55.5,13.91797 55.5,17.04456 0,0.67049 -2.925,10.582 -6.5,22.02557 -3.575,11.44357 -6.4993,22.20862 -6.49845,23.92234 0.002,4.4409 2.94245,9.70455 6.89633,12.34592 5.9835,3.99724 9.464,3.27558 39.34721,-8.15841 49.81264,-19.05944 87.21272,-33.63489 90.74171,-35.36361 7.15483,-3.50487 10.04609,-12.37459 6.35892,-19.50771 -1.59466,-3.085 -25.5651,-36.76532 -52.80871,-74.20034 -7.2048,-9.9 -15.2021,-20.97629 -17.77178,-24.61397 -5.48279,-7.76154 -9.90892,-10.39835 -16.0679,-9.57226 -5.07207,0.68031 -8.6167,3.27824 -11.29019,8.27481 -1.15108,2.15128 -4.90857,13.60398 -8.34998,25.45043 l -6.2571,21.53902 -12.65003,-4.34863 c -16.79773,-5.77446 -36.20723,-10.47865 -55.15003,-13.36645 -13.56484,-2.06794 -19.0582,-2.3621 -44,-2.35616 -29.6605,0.007 -34.2911,0.4339 -61,5.62276 -45.4906,8.83766 -91.7612,30.52982 -130.1641,61.02234 -12.5634,9.97552 -34.3282,31.11667 -44.627,43.34811 -40.5047,48.10587 -64.0812,101.87264 -71.694,163.5 -2.0326,16.45436 -2.0418,51.43221 -0.018,67.70756 11.9196,95.84774 65.9792,177.82403 151.2825,229.40553 43.6965,26.42257 91.3566,40.65615 144.7204,43.22043 3.3,0.15857 7.80768,0.3734 10.01707,0.4774 2.20938,0.10399 11.20938,-0.28066 20,-0.85478 z m -13.47395,-85.78997 c 2.11411,-1.71191 2.27107,-2.63202 2.36078,-13.83939 0.10283,-12.84622 -0.46081,-14.63752 -5.169,-16.42757 -2.71558,-1.03246 -7.61415,1.04077 -8.61372,3.64559 -0.34165,0.89033 -0.62118,6.55243 -0.62118,12.58244 0,10.30711 0.14699,11.11066 2.45455,13.41821 2.91617,2.91617 6.46971,3.14621 9.58857,0.62072 z M 403.39556,677.74236 c 2.8549,-1.52791 12.9892,-19.36816 12.9892,-22.86605 0,-2.03151 -0.8404,-3.64409 -2.6349,-5.05558 -5.3943,-4.24315 -8.3458,-2.26005 -15.3858,10.33742 -5.5116,9.86246 -6.0259,12.84701 -2.805,16.27555 2.3403,2.49109 4.8454,2.90944 7.8365,1.30866 z m 218.53465,-1.44876 c 3.06567,-3.06566 3.09567,-5.559 0.12413,-10.31532 -1.28174,-2.05157 -3.79985,-6.5059 -5.59582,-9.8985 -3.74199,-7.06867 -7.0613,-9.20569 -11.29937,-7.2747 -2.39923,1.09317 -4.77439,4.65122 -4.77439,7.15216 0,1.69344 10.91398,20.11433 12.76252,21.54091 2.54171,1.96151 6.10566,1.47273 8.78293,-1.20455 z M 332.71136,593.0169 c 10.6716,-6.34523 12.379,-8.68544 10.1699,-13.93926 -1.2609,-2.99873 -3.179,-4.32949 -6.2403,-4.32949 -2.0319,0 -20.3601,10.62948 -22.0062,12.76252 -1.8757,2.43053 -1.5062,6.98125 0.75,9.23748 3.2399,3.23993 6.9437,2.44232 17.3266,-3.73125 z m 369.6734,3.73125 c 2.25506,-2.25506 2.62806,-6.82661 0.75,-9.19231 -1.86614,-2.35069 -20.24963,-12.80769 -22.51602,-12.80769 -3.22355,0 -7.23398,3.81499 -7.23398,6.88145 0,4.08761 1.86105,5.96428 11.61933,11.71682 9.82962,5.79461 14.14349,6.63891 17.38067,3.40173 z M 517.59707,501.12371 c 1.49176,-0.76336 3.96676,-2.96014 5.5,-4.88172 l 2.78769,-3.49378 60.79545,-3e-5 60.79546,-3e-5 2.45454,-2.45455 c 1.35,-1.35 2.45455,-3.12882 2.45455,-3.95294 0,-2.80983 -2.21596,-6.36988 -4.65732,-7.48224 -1.69871,-0.77398 -20.52023,-1.11114 -62.13973,-1.11315 l -59.70295,-0.003 -1.93779,-2.89245 c -1.06578,-1.59084 -3.18347,-3.62829 -4.70597,-4.52765 l -2.76818,-1.6352 -0.29403,-59.88968 -0.29403,-59.88967 -2.42431,-2.5798 c -3.6343,-3.86739 -8.49934,-3.57329 -11.08665,0.6702 -1.91637,3.14307 -1.98169,5.19713 -1.9853,62.43191 l -0.004,59.1819 -2.91417,2.07508 c -3.6028,2.56541 -7.09316,9.5457 -7.06387,14.12683 0.0276,4.3131 2.93494,10.71702 6.25131,13.76952 5.42452,4.99292 14.09141,6.04439 20.93904,2.54032 z M 314.93016,490.2936 c 3.0303,-3.03026 3.2344,-7.76562 0.4546,-10.54545 -1.7854,-1.78542 -3.3333,-2 -14.4274,-2 -12.2345,0 -12.4596,0.0409 -14.5,2.63486 -2.4645,3.13304 -2.5619,4.51835 -0.5862,8.33886 1.8558,3.58871 2.5812,3.76814 15.809,3.91028 10.2051,0.10966 10.9297,-0.0182 13.25,-2.33855 z m 26.1401,-97.71976 c 2.5385,-2.38477 3.0253,-6.52616 1.0645,-9.05661 -1.791,-2.3114 -19.839,-12.76908 -22.037,-12.76908 -4.9208,0 -8.6062,5.52062 -6.8206,10.21713 1.1507,3.02635 19.105,13.75804 23.0431,13.77338 1.3396,0.005 3.4771,-0.96895 4.75,-2.16482 z m 73.3145,-73.82569 c 1.1,-1.1 2,-3.17951 2,-4.62114 0,-2.73479 -9.2356,-19.9542 -11.8687,-22.12886 -3.9958,-3.30003 -11.1313,0.14671 -11.1313,5.37689 0,2.45655 5.9411,14.43284 10.2306,20.62311 2.3764,3.42939 7.718,3.80139 10.7694,0.75 z m 99.25,-26.77327 c 1.48757,-1.30626 1.75,-3.37137 1.75,-13.77093 0,-10.39967 -0.27654,-12.57574 -1.84417,-14.51168 -2.27608,-2.81084 -7.29159,-3.03622 -10.14292,-0.4558 -1.81576,1.64324 -2.01291,3.06453 -2.01291,14.51168 0,10.83831 0.25536,12.91248 1.75,14.21452 3.49701,3.0464 7.03999,3.05051 10.5,0.0122 z"
       id="path1" />
  </g>
</svg>
