<?xml version="1.0" encoding="UTF-8" standalone="no"?>
<!-- Created with Inkscape (http://www.inkscape.org/) -->

<svg
   version="1.1"
   id="svg1"
   width="48.514999"
   height="49.659"
   viewBox="0 0 48.515 49.659002"
   sodipodi:docname="new_icon_white_148.svg"
   inkscape:version="1.4.2 (ebf0e940d0, 2025-05-08)"
   xmlns:inkscape="http://www.inkscape.org/namespaces/inkscape"
   xmlns:sodipodi="http://sodipodi.sourceforge.net/DTD/sodipodi-0.dtd"
   xmlns="http://www.w3.org/2000/svg"
   xmlns:svg="http://www.w3.org/2000/svg">
  <sodipodi:namedview
     id="namedview1"
     pagecolor="#ffffff"
     bordercolor="#000000"
     borderopacity="0.25"
     inkscape:showpageshadow="2"
     inkscape:pageopacity="0.0"
     inkscape:pagecheckerboard="0"
     inkscape:deskcolor="#d1d1d1"
     inkscape:zoom="2.4751437"
     inkscape:cx="-30.503279"
     inkscape:cy="49.694084"
     inkscape:window-width="1920"
     inkscape:window-height="1008"
     inkscape:window-x="0"
     inkscape:window-y="0"
     inkscape:window-maximized="1"
     inkscape:current-layer="g1" />
  <defs
     id="defs1" />
  <g
     id="g1"
     transform="matrix(0.22900772,0,0,0.23036539,-45.657149,-32.923085)">
    <path
       style="fill:#ffffff;fill-opacity:1;stroke-width:0.329231"
       d="m 306.36361,358.1938 c 25.23379,-1.67401 48.14217,-12.36398 65.84165,-30.72435 12.32862,-12.78897 20.86144,-27.401 25.41507,-43.52203 1.14363,-4.04873 2.6542,-10.93975 2.65475,-12.11059 1.4e-4,-0.30038 -2.3655,-0.39792 -9.65047,-0.39792 h -9.65065 l -0.17723,0.82953 c -3.50254,16.39331 -10.93433,30.22529 -22.52546,41.92419 -10.75202,10.85198 -23.09594,18.09106 -37.4061,21.93679 -6.8404,1.8383 -12.4428,2.57077 -19.89715,2.6014 -6.79326,0.0279 -10.55073,-0.33369 -16.82337,-1.61906 -24.61454,-5.04391 -46.92511,-22.69316 -57.85066,-45.76399 -5.03698,-10.63633 -7.47692,-20.7073 -7.87827,-32.51781 -0.78246,-23.02623 8.36301,-45.20983 25.45951,-61.75563 13.2445,-12.81787 30.25459,-20.77699 48.549,-22.71636 4.72798,-0.50121 16.45308,-0.2222 20.46715,0.48703 7.66987,1.35515 18.13004,4.61818 18.13004,5.65563 0,0.22247 -0.95551,3.51125 -2.12334,7.3084 -1.16784,3.79714 -2.12311,7.36913 -2.12283,7.93777 6.5e-4,1.47355 0.9612,3.22011 2.2528,4.09655 1.95462,1.32634 3.09158,1.08689 12.85345,-2.70707 16.27216,-6.3242 28.48955,-11.16054 29.64235,-11.73416 2.33725,-1.16296 3.28173,-4.10606 2.07725,-6.47293 -0.52092,-1.02365 -8.35128,-12.19926 -17.25088,-24.62074 -2.35357,-3.28496 -4.96603,-6.96023 -5.80546,-8.16727 -1.79104,-2.57539 -3.23692,-3.45032 -5.24885,-3.17621 -1.65688,0.22574 -2.8148,1.08777 -3.68814,2.7457 -0.37602,0.71383 -1.60347,4.514 -2.72767,8.44482 l -2.04399,7.14695 -4.13235,-1.44294 c -5.48727,-1.91604 -11.82772,-3.47696 -18.01571,-4.43517 -4.43119,-0.68618 -6.22569,-0.78378 -14.37336,-0.78181 -9.68912,0.002 -11.20179,0.14397 -19.92671,1.86571 -14.86029,2.93246 -29.97539,10.13023 -42.52036,20.24809 -4.10405,3.31002 -11.2139,10.32495 -14.57818,14.38352 -13.23157,15.96222 -20.93324,33.8028 -23.42009,54.25164 -0.66399,5.45979 -0.66699,17.06595 -0.006,22.46634 3.89374,31.80365 21.55325,59.00456 49.41905,76.12004 14.27422,8.76739 29.84322,13.49029 47.27543,14.34116 1.078,0.0526 2.55051,0.1239 3.27225,0.15841 0.72173,0.0345 3.66173,-0.0931 6.53334,-0.28363 z m -4.4015,-28.46634 c 0.69061,-0.56804 0.74188,-0.87334 0.77119,-4.59211 0.0336,-4.26256 -0.15053,-4.85694 -1.68854,-5.4509 -0.8871,-0.34259 -2.4873,0.34534 -2.81383,1.20966 -0.1116,0.29542 -0.20291,2.17419 -0.20291,4.17503 0,3.42005 0.048,3.68668 0.80182,4.45235 0.95261,0.96763 2.11344,1.04396 3.13227,0.20597 z m -35.94397,-9.34786 c 0.93261,-0.50698 4.24315,-6.42663 4.24315,-7.58728 0,-0.67409 -0.27453,-1.20917 -0.86073,-1.67752 -1.76215,-1.40794 -2.7263,-0.74992 -5.02604,3.43011 -1.80046,3.2725 -1.96847,4.26282 -0.9163,5.40046 0.7645,0.82658 1.58283,0.96539 2.55992,0.43423 z m 71.38814,-0.48072 c 1.00145,-1.01723 1.01125,-1.84456 0.0405,-3.42277 -0.41871,-0.68074 -1.24129,-2.15875 -1.82798,-3.28447 -1.22238,-2.34548 -2.30669,-3.05458 -3.69113,-2.41385 -0.78375,0.36273 -1.55964,1.54335 -1.55964,2.37319 0,0.56191 3.56524,6.67423 4.1691,7.14759 0.83029,0.65085 1.99452,0.48867 2.8691,-0.39969 z m -94.47835,-27.6324 c 3.48606,-2.10544 4.04381,-2.88196 3.32217,-4.62525 -0.4119,-0.99502 -1.03848,-1.43659 -2.0385,-1.43659 -0.66376,0 -6.65098,3.52702 -7.18871,4.23479 -0.61273,0.80649 -0.49203,2.31648 0.245,3.06513 1.05837,1.07505 2.26828,0.8104 5.66004,-1.23808 z m 120.76022,1.23808 c 0.73665,-0.74826 0.8585,-2.26517 0.245,-3.05014 -0.60961,-0.77999 -6.61489,-4.24978 -7.35525,-4.24978 -1.05303,0 -2.3631,1.26587 -2.3631,2.28337 0,1.35633 0.60794,1.97903 3.79565,3.88781 3.21102,1.92273 4.62022,2.20288 5.6777,1.12874 z m 42.05092,-28.15885 c 2.10143,-0.96507 4.03144,-3.03471 4.85662,-5.20795 0.55382,-1.45858 0.62256,-2.57381 0.62256,-10.10088 v -8.46126 L 410.3,239.67623 c -1.10219,-2.27988 -2.98685,-4.00522 -5.25273,-4.80869 -1.48554,-0.52677 -2.96195,-0.59019 -13.42906,-0.57686 -8.15498,0.0104 -12.17006,0.1372 -13.0976,0.41367 -2.95897,0.882 -5.51503,3.4733 -6.41955,6.50806 -0.27239,0.9139 -0.4057,3.9112 -0.40725,9.15629 -0.002,6.63157 0.0848,8.05116 0.58034,9.49297 0.67207,1.95551 2.45316,4.21718 3.94181,5.00542 2.55254,1.35156 3.22906,1.40897 15.72891,1.33465 11.93243,-0.0709 12.10849,-0.0819 13.7942,-0.85603 z M 382.4089,261.357 c -3.44176,-0.24275 -4.43541,-0.76449 -5.48549,-2.88026 -0.58413,-1.17695 -0.64755,-1.97727 -0.64243,-8.10804 0.01,-11.54027 -0.0846,-11.48037 17.66497,-11.22896 7.95422,0.11266 8.90084,0.18616 10.07652,0.78239 2.29336,1.16304 2.60612,2.14962 2.73318,8.62159 0.15061,7.6714 -0.0697,9.52896 -1.29864,10.95072 -0.53245,0.61599 -1.43851,1.26639 -2.01344,1.44533 -1.28216,0.39905 -16.90031,0.70885 -21.03467,0.41723 z m 10.37239,-8.30205 c 2.41464,-1.35127 4.45396,-2.51097 4.53182,-2.57709 0.0779,-0.0661 -0.0373,-0.30188 -0.25586,-0.5239 -0.65995,-0.67035 -9.00432,-5.18035 -9.27281,-5.0118 -0.29873,0.18753 -0.32876,7.71607 -0.0379,9.50377 0.11247,0.69124 0.30348,1.21385 0.42449,1.16135 0.121,-0.0525 2.19562,-1.20105 4.61027,-2.55233 z m -89.45724,8.72005 c 0.48731,-0.25329 1.29581,-0.98222 1.79667,-1.61982 l 0.91064,-1.15929 19.85989,-10e-6 19.85989,-10e-6 0.80182,-0.81446 c 0.441,-0.44794 0.80182,-1.03818 0.80182,-1.31164 0,-0.93234 -0.72388,-2.11361 -1.52139,-2.48271 -0.55491,-0.25682 -6.70329,-0.36869 -20.29902,-0.36936 l -19.50301,-0.001 -0.63301,-0.95975 c -0.34815,-0.52787 -1.03993,-1.20392 -1.53728,-1.50234 l -0.90428,-0.54258 -0.096,-19.87226 -0.0961,-19.87225 -0.79194,-0.85601 c -1.18721,-1.28326 -2.77646,-1.18567 -3.62165,0.22238 -0.62601,1.04291 -0.64735,1.72448 -0.64853,20.7158 l -10e-4,19.6374 -0.95196,0.68854 c -1.17692,0.85124 -2.31711,3.1674 -2.30754,4.68749 0.009,1.43115 0.95875,3.55606 2.0421,4.56892 1.77202,1.65673 4.60321,2.00562 6.8401,0.84292 z m -66.20466,-3.59359 c 0.9899,-1.00548 1.05657,-2.57674 0.1485,-3.49913 -0.58323,-0.59242 -1.08888,-0.66363 -4.71296,-0.66363 -3.99661,0 -4.07014,0.0136 -4.73668,0.87429 -0.80507,1.03959 -0.83688,1.49925 -0.19149,2.76695 0.60623,1.19079 0.8432,1.25033 5.16429,1.29749 3.33367,0.0364 3.57037,-0.006 4.32834,-0.77597 z m 8.53911,-32.42481 c 0.82925,-0.7913 0.98827,-2.16547 0.34774,-3.00511 -0.58506,-0.76696 -6.48075,-4.23697 -7.19877,-4.23697 -1.60746,0 -2.81136,1.83182 -2.22806,3.39019 0.37589,1.00419 6.24098,4.56512 7.52742,4.57021 0.43761,0.002 1.13586,-0.32151 1.55167,-0.71832 z m 23.94946,-24.49642 c 0.35933,-0.365 0.65333,-1.05501 0.65333,-1.53336 0,-0.90745 -3.01697,-6.62109 -3.87711,-7.34268 -1.3053,-1.09499 -3.63624,0.0487 -3.63624,1.78413 0,0.81512 1.94077,4.78903 3.34201,6.84305 0.77629,1.13792 2.52121,1.26135 3.51801,0.24886 z m 32.42173,-8.88376 c 0.48594,-0.43343 0.57167,-1.11867 0.57167,-4.56939 0,-3.45076 -0.0903,-4.17281 -0.60243,-4.81518 -0.74352,-0.93268 -2.38193,-1.00746 -3.31336,-0.15124 -0.59315,0.54525 -0.65755,1.01685 -0.65755,4.81518 0,3.59631 0.0834,4.28455 0.57166,4.71658 1.14236,1.01084 2.29974,1.0122 3.43001,0.004 z"
       id="path1" />
  </g>
</svg>
